<svg version="1.1" xmlns="http://www.w3.org/2000/svg" xmlns:xlink="http://www.w3.org/1999/xlink" width="98.3663" height="37.513" viewBox="0,0,98.3663,37.513"><g transform="translate(-190.8167,-161.2435)"><g data-paper-data="{&quot;isPaintingLayer&quot;:true}" fill-rule="nonzero" stroke-linecap="butt" stroke-linejoin="round" stroke-miterlimit="10" stroke-dasharray="" stroke-dashoffset="0" style="mix-blend-mode: normal"><g fill="#000000" stroke="#000000" stroke-width="10"><path d="M268.08,189.4655v-2.232l9.36,-10.339v2.976z"/><path d="M277.44,176.8945h6.743l-11.045,10.339h-5.058z"/><path d="M284.183,176.8945v2.976l-11.045,9.595v-2.232z"/><path d="M273.138,189.4655h-5.058l9.36,-9.595h6.743z"/><path d="M262.429,193.7565c-1.5,0 -2.73833,-0.47666 -3.715,-1.43l6.238,-8.642c1.302,1.27133 2.953,1.907 4.953,1.907z"/><path d="M258.714,192.3265c-0.96533,-0.954 -1.448,-2.25066 -1.448,-3.89l5.756,-9.938c0,2.186 0.64333,3.91467 1.93,5.186z"/><path d="M257.266,188.4365c0,-1.58133 0.477,-2.866 1.431,-3.854l6.232,-11.223c-1.27134,1.318 -1.907,3.031 -1.907,5.139z"/><path d="M264.929,173.3595c1.28667,-1.318 2.79034,-1.977 4.511,-1.977l-7.36,11.717c-1.29066,0 -2.41833,0.49434 -3.383,1.483z"/><path d="M269.44,171.3825c1.876,0 3.31,0.60466 4.302,1.814l-8.435,11.264c-0.74466,-0.90733 -1.82034,-1.361 -3.227,-1.361z"/><path d="M273.742,173.1965c1.008,1.20934 1.512,2.79066 1.512,4.744l-8.814,10.078c0,-1.46534 -0.37766,-2.65133 -1.133,-3.558z"/><path d="M275.254,177.9405c0,0.79066 -0.062,1.38766 -0.186,1.791l-8.767,9.63c0.09267,-0.30266 0.139,-0.75033 0.139,-1.343z"/><path d="M266.301,189.3615h-5.965l6.779,-9.63h7.953z"/><path d="M267.115,179.7315c0.356,1.75134 1.48,2.627 3.372,2.627l-7.622,8.973c-1.41866,0 -2.26166,-0.65667 -2.529,-1.97z"/><path d="M270.487,182.3585c0.94534,0 1.89866,-0.28667 2.86,-0.86l-8.337,9.188c-0.72066,0.43 -1.43566,0.645 -2.145,0.645z"/><path d="M273.347,181.4985l1.418,2.558l-8.691,8.549l-1.064,-1.919z"/><path d="M266.074,192.6055c-1.07,0.76734 -2.285,1.151 -3.645,1.151l7.476,-8.165c1.814,0 3.434,-0.51166 4.86,-1.535z"/><path d="M267.045,176.9875h4.627l-7.918,10.316h-3.47z"/><path d="M263.754,187.3035c0,-1.186 -0.53467,-1.779 -1.604,-1.779l7.383,-10.909c1.426,0 2.139,0.79066 2.139,2.372z"/><path d="M262.15,185.5245c-0.46533,0 -0.86666,0.151 -1.204,0.453l6.983,-10.758c0.44934,-0.40267 0.984,-0.604 1.604,-0.604z"/><path d="M267.929,175.2195c-0.45,0.40333 -0.74466,0.99266 -0.884,1.768l-6.761,10.316c0.10467,-0.58133 0.32534,-1.02334 0.662,-1.326z"/><path d="M251.528,193.7565c-0.95334,0 -1.831,-0.442 -2.633,-1.326l2.965,-8.607c1.06934,1.17866 2.23967,1.768 3.511,1.768z"/><path d="M248.895,192.4305h-0.07l2.942,-8.607h0.093z"/><path d="M251.767,183.8235l-0.326,1.442l-2.86,8.247l0.244,-1.082z"/><path d="M248.581,193.5125h-2.477l2.035,-8.247h3.302z"/><path d="M246.104,193.5125v-14.267l2.035,-13.002v19.022z"/><path d="M248.139,166.2435h4.209l-3.087,13.002h-3.157z"/><path d="M252.348,166.2435v4.558l-3.087,11.862v-3.418z"/><path d="M252.348,170.8015l-0.093,2.023l-3.064,11.357l0.07,-1.518z"/><path d="M252.255,172.8245c1.054,-0.96133 2.21667,-1.442 3.488,-1.442l-3.936,11.717c-0.95334,0 -1.82534,0.36067 -2.616,1.082z"/><path d="M255.743,171.3825c1.61266,0 2.89934,0.628 3.86,1.884l-4.9,11.246c-0.72133,-0.942 -1.68666,-1.413 -2.896,-1.413z"/><path d="M259.603,173.2665c0.97733,1.24 1.466,2.89866 1.466,4.976l-5.268,10.002c0,-1.558 -0.366,-2.802 -1.098,-3.732z"/><path d="M261.069,178.2425c0,2.248 -0.566,4.03867 -1.698,5.372l-4.843,8.659c0.84866,-1 1.273,-2.343 1.273,-4.029z"/><path d="M254.528,192.2735c-0.83734,0.98866 -1.83734,1.483 -3,1.483l3.843,-8.165c1.55067,0 2.884,-0.659 4,-1.977z"/><path d="M254.371,182.1265c0.698,0 1.25634,-0.31 1.675,-0.93l-4.012,9.263c-0.314,0.46534 -0.73266,0.698 -1.256,0.698z"/><path d="M252.034,190.4595c0.326,-0.46466 0.489,-1.17966 0.489,-2.145l4.174,-9.979c0,1.28734 -0.217,2.241 -0.651,2.861z"/><path d="M252.523,188.3145c0,-1.75534 -0.54667,-2.633 -1.64,-2.633l3.628,-10.857c1.45734,0 2.186,1.17033 2.186,3.511z"/><path d="M250.883,185.6815c-0.53466,0 -1.07534,0.29066 -1.622,0.872l3.087,-10.566c0.72867,-0.77534 1.44966,-1.163 2.163,-1.163z"/><path d="M252.348,175.9875v5.348l-3.087,9.229v-4.011z"/><path d="M252.348,181.3355c0.58934,0.52733 1.26367,0.791 2.023,0.791l-3.593,9.031c-0.56933,0 -1.075,-0.19767 -1.517,-0.593z"/><path d="M240.052,193.7565c-1.5,0 -2.73834,-0.47666 -3.715,-1.43l-1.22,-8.642c1.302,1.27133 2.953,1.907 4.953,1.907z"/><path d="M236.337,192.3265c-0.9648,-0.954 -1.4472,-2.25066 -1.4472,-3.89l-1.7033,-9.938c0,2.186 0.6435,3.91467 1.9305,5.186z"/><path d="M233.1865,178.4985c0,-2.108 0.6355,-3.821 1.9065,-5.139l1.227,11.223c-0.95346,0.988 -1.4302,2.27267 -1.4302,3.854z"/><path d="M235.093,173.3595c1.28666,-1.318 2.79066,-1.977 4.512,-1.977l0.099,11.717c-1.29066,0 -2.41867,0.49434 -3.384,1.483z"/><path d="M239.605,171.3825c1.87534,0 3.30934,0.60466 4.302,1.814l-0.977,11.264c-0.744,-0.90733 -1.81933,-1.361 -3.226,-1.361z"/><path d="M243.907,173.1965c1.00734,1.20934 1.511,2.79066 1.511,4.744l-1.354,10.078c0,-1.46534 -0.378,-2.65133 -1.134,-3.558z"/><path d="M245.418,177.9405c0,0.79066 -0.062,1.38766 -0.186,1.791l-1.308,9.63c0.09333,-0.30266 0.14,-0.75033 0.14,-1.343z"/><path d="M243.924,189.3615h-5.965l-0.68,-9.63h7.953z"/><path d="M237.279,179.7315c0.35666,1.75134 1.48067,2.627 3.372,2.627l-0.163,8.973c-1.418,0 -2.261,-0.65667 -2.529,-1.97z"/><path d="M240.651,182.3585c0.946,0 1.89933,-0.28667 2.86,-0.86l-0.877,9.188c-0.72134,0.43 -1.43666,0.645 -2.146,0.645z"/><path d="M243.511,181.4985l1.419,2.558l-1.233,8.549l-1.063,-1.919z"/><path d="M243.697,192.6055c-1.06933,0.76734 -2.28433,1.151 -3.645,1.151l0.018,-8.165c1.814,0 3.434,-0.51166 4.86,-1.535z"/><path d="M237.209,176.9875h4.628l-0.459,10.316h-3.471z"/><path d="M241.378,187.3035c0,-1.186 -0.535,-1.779 -1.605,-1.779l-0.075,-10.909c1.426,0 2.139,0.79066 2.139,2.372z"/><path d="M239.773,185.5245c-0.46466,0 -0.86567,0.151 -1.203,0.453l-0.477,-10.758c0.45,-0.40267 0.985,-0.604 1.605,-0.604z"/><path d="M238.57,185.9775c-0.33733,0.30266 -0.55833,0.74466 -0.663,1.326l-0.698,-10.316c0.14,-0.77534 0.43466,-1.36467 0.884,-1.768z"/><path d="M222.908,185.2655v-13.557l4.273,11.636v10.168z"/><path d="M222.908,171.7085h3.4417l3.4126,11.636h-2.5813z"/><path d="M229.7623,183.3445l0.2092,1.779l-3.3428,-11.043l-0.279,-2.372z"/><path d="M226.6287,174.0805h0.1163l3.3137,11.043h-0.0872z"/><path d="M226.745,174.0805c0.4806,-0.868 1.06197,-1.53466 1.7441,-2l2.8777,11.543c-0.5116,0.34867 -0.94764,0.84867 -1.3081,1.5z"/><path d="M228.4891,172.0805c0.6976,-0.46534 1.39523,-0.698 2.0929,-0.698l2.3545,11.717c-0.52327,0 -1.0465,0.17467 -1.5697,0.524z"/><path d="M230.582,171.3825c0.68213,0 1.23247,0.093 1.651,0.279l1.9418,11.648c-0.31393,-0.14 -0.7267,-0.21 -1.2383,-0.21z"/><path d="M234.1748,183.3095l-0.5407,2.738l-2.122,-10.735l0.7209,-3.651z"/><path d="M233.6341,186.0475c-0.4186,-0.10467 -0.78486,-0.157 -1.0988,-0.157l-2.4882,-10.787c0.4186,0 0.90694,0.06967 1.465,0.209z"/><path d="M232.5353,185.8905c-0.41853,0 -0.82547,0.14533 -1.2208,0.436l-2.8952,-10.642c0.52713,-0.38734 1.06974,-0.581 1.6278,-0.581z"/><path d="M231.3145,186.3265c-0.39533,0.29066 -0.7209,0.75 -0.9767,1.378l-3.2207,-10.182c0.34106,-0.83733 0.77514,-1.45 1.3022,-1.838z"/><path d="M230.3378,187.7045v5.808l-3.2207,-8.247v-7.743z"/><path d="M230.3378,193.5125h-3.1568l-4.273,-8.247h4.2091z"/><path d="M220.3268,193.7565c-1.93014,0 -3.51144,-0.593 -4.7439,-1.779l-8.139,-8.758c1.64327,1.58133 3.75163,2.372 6.3251,2.372z"/><path d="M207.4439,183.2195c-1.64334,-1.58133 -2.465,-3.82166 -2.465,-6.721l8.7553,10.438c0,2.17467 0.61624,3.855 1.8487,5.041z"/><path d="M204.9789,176.4985c0,-2.852 0.83716,-5.10766 2.5115,-6.767l8.1274,12.13c-1.25573,1.244 -1.8836,2.93567 -1.8836,5.075z"/><path d="M207.4904,169.7315c1.67426,-1.674 3.7439,-2.511 6.2089,-2.511l6.5752,12.758c-1.84874,0 -3.40097,0.62766 -4.6567,1.883z"/><path d="M213.6993,167.2205c2.24794,0 4.1393,0.76734 5.6741,2.302l5.1566,12.182c-1.15106,-1.15067 -2.56957,-1.726 -4.2555,-1.726z"/><path d="M224.53,181.7045l-1.7092,2.041l-5.7264,-11.502l2.279,-2.721z"/><path d="M222.8208,183.7455c-0.75573,-0.698 -1.56964,-1.047 -2.4417,-1.047l-6.5403,-11.85c1.16273,0 2.24794,0.465 3.2556,1.395z"/><path d="M220.3791,182.6985c-0.99993,0 -1.81383,0.37233 -2.4417,1.117l-7.3542,-11.479c0.83713,-0.992 1.92233,-1.488 3.2556,-1.488z"/><path d="M217.9374,183.8155c-0.61626,0.744 -0.9244,1.74966 -0.9244,3.017l-7.6623,-10.473c0,-1.69 0.41084,-3.031 1.2325,-4.023z"/><path d="M217.013,186.8325c0,1.34867 0.30233,2.38334 0.907,3.104l-7.3601,-9.438c-0.80614,-0.96133 -1.2092,-2.341 -1.2092,-4.139z"/><path d="M210.5599,180.4985c0.82166,0.96133 2.03867,1.442 3.651,1.442l6.4473,9.078c-1.20926,0 -2.122,-0.36066 -2.7382,-1.082z"/><path d="M214.2109,181.9405c0.6976,0 1.2557,-0.155 1.6743,-0.465l6.0287,9.194c-0.31393,0.23266 -0.7325,0.349 -1.2557,0.349z"/><path d="M215.8852,181.4755v-2.86l6.0287,9.909v2.145z"/><path d="M221.9139,188.5245h-2.1103l-6.7322,-9.909h2.8138z"/><path d="M213.0714,178.6155v-3.465l6.7322,10.775v2.599z"/><path d="M213.0714,175.1505h6.6043l5.081,10.775h-4.9531z"/><path d="M224.7567,185.9255v6.209l-5.081,-8.706v-8.278z"/><path d="M224.7567,192.1345c-0.48834,0.46466 -1.1278,0.854 -1.9184,1.168l-5.7206,-8.316c1.0542,-0.41867 1.90686,-0.938 2.558,-1.558z"/><path d="M222.8383,193.3025c-0.79066,0.30266 -1.62784,0.454 -2.5115,0.454l-6.5578,-8.165c1.17827,0 2.2945,-0.20167 3.3487,-0.605z"/><path d="M195.8167,179.8705v-2.976l11.0458,10.339v2.232z"/><path d="M195.8167,176.8945h6.7437l9.3599,10.339h-5.0578z"/><path d="M211.9203,187.2335v2.232l-9.3599,-9.595v-2.976z"/><path d="M211.9203,189.4655h-5.0578l-11.0458,-9.595h6.7437z"/></g><path d="M277.43958,179.87075v-2.97657h6.74377v2.97657zM269.90515,185.59133c-1.99988,0 -3.65094,-0.63562 -4.95319,-1.90686c-1.28674,-1.27124 -1.93011,-2.99981 -1.93011,-5.18573c0,-2.1084 0.63562,-3.82147 1.90685,-5.13922c1.28674,-1.31776 2.79054,-1.97663 4.51136,-1.97663c1.87586,0 3.30987,0.60461 4.30207,1.81385c1.00768,1.20923 1.51153,2.79053 1.51153,4.74389c0,0.79065 -0.06201,1.38751 -0.18603,1.79059h-7.953c0.35656,1.75183 1.48053,2.62775 3.37189,2.62775c0.94567,0 1.89911,-0.28681 2.86029,-0.86042l1.41851,2.55799c-1.42627,1.02319 -3.04632,1.53479 -4.86017,1.53479zM267.04485,176.9872h4.62764c0,-1.5813 -0.71314,-2.37195 -2.13941,-2.37195c-0.62011,0 -1.15496,0.20154 -1.60455,0.60462c-0.44959,0.40308 -0.74415,0.99219 -0.88368,1.76733zM255.37116,185.59133c-1.27124,0 -2.44171,-0.58912 -3.51141,-1.76734h-0.093l-0.32556,1.44178h-3.30213v-19.0221h4.20904v4.55786l-0.093,2.02314c1.0542,-0.96119 2.21692,-1.44178 3.48815,-1.44178c1.6123,0 2.89905,0.62787 3.86023,1.88361c0.97668,1.24024 1.46503,2.89905 1.46503,4.97644c0,2.24793 -0.56586,4.03852 -1.69758,5.37176c-1.1162,1.31776 -2.44946,1.97663 -3.99975,1.97663zM254.37121,182.12642c0.69764,0 1.25574,-0.31006 1.67432,-0.93017c0.43408,-0.62012 0.65113,-1.57355 0.65113,-2.86029c0,-2.34095 -0.72863,-3.51142 -2.18591,-3.51142c-0.71315,0 -1.43403,0.38757 -2.16267,1.16272v5.34851c0.58911,0.5271 1.26349,0.79065 2.02313,0.79065zM240.06977,185.59133c-1.99988,0 -3.65095,-0.63562 -4.9532,-1.90686c-1.28674,-1.27124 -1.93011,-2.99981 -1.93011,-5.18573c0,-2.1084 0.63562,-3.82147 1.90686,-5.13922c1.28674,-1.31776 2.79053,-1.97663 4.51136,-1.97663c1.87584,0 3.30987,0.60461 4.30205,1.81385c1.0077,1.20923 1.51154,2.79053 1.51154,4.74389c0,0.79065 -0.06202,1.38751 -0.18604,1.79059h-7.953c0.35656,1.75183 1.48053,2.62775 3.37189,2.62775c0.94567,0 1.89911,-0.28681 2.86029,-0.86042l1.41852,2.55799c-1.42628,1.02319 -3.04632,1.53479 -4.86016,1.53479zM237.20947,176.9872h4.62762c0,-1.5813 -0.71313,-2.37195 -2.1394,-2.37195c-0.62012,0 -1.15497,0.20154 -1.60456,0.60462c-0.44958,0.40308 -0.74413,0.99219 -0.88366,1.76733zM222.90802,185.26577v-13.55732h3.44165l0.27905,2.37195h0.11627c0.48059,-0.86816 1.06195,-1.53479 1.74408,-1.99988c0.69763,-0.46508 1.39527,-0.69763 2.0929,-0.69763c0.68213,0 1.23248,0.09302 1.65106,0.27906l-0.72089,3.65094c-0.5581,-0.13952 -1.04644,-0.20929 -1.46502,-0.20929c-0.55811,0 -1.10071,0.19378 -1.62781,0.58136c-0.5271,0.38757 -0.96119,0.99993 -1.30225,1.83709v7.74372zM213.76904,185.59133c-2.57349,0 -4.68188,-0.79065 -6.32519,-2.37195c-1.64331,-1.5813 -2.46497,-3.82148 -2.46497,-6.72052c0,-2.85254 0.83716,-5.10821 2.51147,-6.76703c1.67432,-1.67432 3.74396,-2.51147 6.20892,-2.51147c2.24793,0 4.13928,0.76739 5.67407,2.30218l-2.27893,2.72077c-1.00769,-0.93018 -2.09289,-1.39527 -3.25562,-1.39527c-1.33325,0 -2.41845,0.49609 -3.25562,1.48828c-0.82165,0.99219 -1.23248,2.33319 -1.23248,4.02301c0,1.79834 0.40308,3.1781 1.20923,4.13929c0.82165,0.96118 2.03863,1.44177 3.65094,1.44177c0.69763,0 1.25574,-0.15503 1.67432,-0.46509v-2.86029h-2.81378v-3.46491h6.60425v8.27857c-0.65113,0.62012 -1.50378,1.13947 -2.55799,1.55804c-1.0542,0.40308 -2.17041,0.60462 -3.34864,0.60462zM195.81665,179.87075v-2.97657h6.74377v2.97657z" fill="#ffffff" stroke="#ffffff" stroke-width="5"/><path d="M277.43958,179.87075v-2.97657h6.74377v2.97657zM269.90516,185.59133c-1.99988,0 -3.65094,-0.63562 -4.95319,-1.90686c-1.28674,-1.27124 -1.93012,-2.99981 -1.93012,-5.18573c0,-2.1084 0.63562,-3.82147 1.90686,-5.13922c1.28674,-1.31776 2.79053,-1.97663 4.51136,-1.97663c1.87586,0 3.30987,0.60461 4.30206,1.81385c1.0077,1.20923 1.51154,2.79053 1.51154,4.74389c0,0.79065 -0.06201,1.38751 -0.18604,1.79059h-7.953c0.35656,1.75183 1.48053,2.62775 3.37189,2.62775c0.94567,0 1.89911,-0.28681 2.86029,-0.86042l1.41851,2.55799c-1.42627,1.02319 -3.04632,1.53479 -4.86016,1.53479zM267.04486,176.9872h4.62763c0,-1.5813 -0.71314,-2.37195 -2.13941,-2.37195c-0.62011,0 -1.15496,0.20154 -1.60455,0.60462c-0.44959,0.40308 -0.74415,0.99219 -0.88367,1.76733zM255.37116,185.59133c-1.27124,0 -2.44171,-0.58912 -3.51141,-1.76734h-0.093l-0.32556,1.44178h-3.30213v-19.0221h4.20905v4.55786l-0.093,2.02314c1.0542,-0.96119 2.21692,-1.44178 3.48816,-1.44178c1.6123,0 2.89905,0.62787 3.86023,1.88361c0.97668,1.24024 1.46503,2.89905 1.46503,4.97644c0,2.24793 -0.56586,4.03852 -1.69758,5.37176c-1.1162,1.31776 -2.44946,1.97663 -3.99975,1.97663zM254.37122,182.12642c0.69763,0 1.25574,-0.31006 1.67432,-0.93017c0.43408,-0.62012 0.65112,-1.57355 0.65112,-2.86029c0,-2.34095 -0.72863,-3.51142 -2.18591,-3.51142c-0.71314,0 -1.43403,0.38757 -2.16266,1.16272v5.34851c0.5891,0.5271 1.26349,0.79065 2.02313,0.79065zM240.06977,185.59133c-1.99988,0 -3.65095,-0.63562 -4.95319,-1.90686c-1.28674,-1.27124 -1.93012,-2.99981 -1.93012,-5.18573c0,-2.1084 0.63562,-3.82147 1.90687,-5.13922c1.28674,-1.31776 2.79053,-1.97663 4.51135,-1.97663c1.87586,0 3.30988,0.60461 4.30206,1.81385c1.0077,1.20923 1.51154,2.79053 1.51154,4.74389c0,0.79065 -0.06202,1.38751 -0.18604,1.79059h-7.953c0.35656,1.75183 1.48053,2.62775 3.37189,2.62775c0.94567,0 1.8991,-0.28681 2.86029,-0.86042l1.41852,2.55799c-1.42628,1.02319 -3.04633,1.53479 -4.86017,1.53479zM237.20948,176.9872h4.62762c0,-1.5813 -0.71313,-2.37195 -2.1394,-2.37195c-0.62012,0 -1.15497,0.20154 -1.60456,0.60462c-0.44958,0.40308 -0.74413,0.99219 -0.88366,1.76733zM222.90803,185.26577v-13.55732h3.44165l0.27905,2.37195h0.11628c0.48059,-0.86816 1.06195,-1.53479 1.74408,-1.99988c0.69763,-0.46508 1.39526,-0.69763 2.09289,-0.69763c0.68213,0 1.23248,0.09302 1.65106,0.27906l-0.72089,3.65094c-0.55811,-0.13952 -1.04645,-0.20929 -1.46502,-0.20929c-0.55811,0 -1.10071,0.19378 -1.62781,0.58136c-0.5271,0.38757 -0.96118,0.99993 -1.30224,1.83709v7.74372zM213.76905,185.59133c-2.57349,0 -4.68188,-0.79065 -6.3252,-2.37195c-1.64331,-1.5813 -2.46497,-3.82148 -2.46497,-6.72052c0,-2.85254 0.83716,-5.10821 2.51148,-6.76703c1.67432,-1.67432 3.74396,-2.51147 6.20892,-2.51147c2.24793,0 4.13928,0.76739 5.67407,2.30218l-2.27893,2.72077c-1.00769,-0.93018 -2.09289,-1.39527 -3.25562,-1.39527c-1.33325,0 -2.41845,0.49609 -3.25562,1.48828c-0.82165,0.99219 -1.23248,2.33319 -1.23248,4.02301c0,1.79834 0.40308,3.1781 1.20923,4.13929c0.82165,0.96118 2.03863,1.44177 3.65094,1.44177c0.69763,0 1.25574,-0.15503 1.67432,-0.46509v-2.86029h-2.81378v-3.46491h6.60425v8.27857c-0.65113,0.62012 -1.50378,1.13947 -2.55799,1.55804c-1.0542,0.40308 -2.17041,0.60462 -3.34864,0.60462zM195.81666,179.87075v-2.97657h6.74377v2.97657z" fill="#5da797" stroke="none" stroke-width="37.5"/></g></g></svg>